HIERARCHY
ROOT Root
{
  OFFSET 0.0 0.0 0.0
  CHANNELS 6 Xposition Yposition Zposition Zrotation Yrotation Xrotation
  JOINT Hips
  {
    OFFSET 0.0 100.0 0.0
    CHANNELS 6 Xposition Yposition Zposition Zrotation Yrotation Xrotation
    JOINT Spine1
    {
      OFFSET 5.003913 -0.037094 -0.013727
      CHANNELS 3 Zrotation Yrotation Xrotation
      JOINT Spine2
      {
        OFFSET 7.125363 -1e-06 0.0
        CHANNELS 3 Zrotation Yrotation Xrotation
        JOINT Chest
        {
          OFFSET 7.594027 1e-06 0.0
          CHANNELS 3 Zrotation Yrotation Xrotation
          JOINT Neck1
          {
            OFFSET 26.313086 -0.460272 -0.181672
            CHANNELS 3 Zrotation Yrotation Xrotation
            JOINT Neck2
            {
              OFFSET 8.045911 0.0 0.0
              CHANNELS 3 Zrotation Yrotation Xrotation
              JOINT Head
              {
                OFFSET 6.432774 0.0 0.0
                CHANNELS 3 Zrotation Yrotation Xrotation
                JOINT HeadEnd
                {
                  OFFSET 16.169773 0.06451 0.00362
                  CHANNELS 3 Zrotation Yrotation Xrotation
                }
                JOINT Jaw
                {
                  OFFSET 0.108741 3.12938 0.002639
                  CHANNELS 3 Zrotation Yrotation Xrotation
                }
                JOINT LeftEye
                {
                  OFFSET 4.45173 8.166359 3.206392
                  CHANNELS 3 Zrotation Yrotation Xrotation
                }
                JOINT RightEye
                {
                  OFFSET 4.436895 8.135758 -3.222429
                  CHANNELS 3 Zrotation Yrotation Xrotation
                }
              }
            }
          }
          JOINT LeftShoulder
          {
            OFFSET 23.218927 5.195579 1.621656
            CHANNELS 3 Zrotation Yrotation Xrotation
            JOINT LeftArm
            {
              OFFSET 15.902118 2e-06 -2e-06
              CHANNELS 3 Zrotation Yrotation Xrotation
              JOINT LeftForeArm
              {
                OFFSET 28.739307 0.0 -1e-06
                CHANNELS 3 Zrotation Yrotation Xrotation
                JOINT LeftHand
                {
                  OFFSET 27.093981 -4e-06 0.0
                  CHANNELS 3 Zrotation Yrotation Xrotation
                  JOINT LeftHandThumb1
                  {
                    OFFSET 2.276781 3.380274 0.83384
                    CHANNELS 3 Zrotation Yrotation Xrotation
                    JOINT LeftHandThumb2
                    {
                      OFFSET 4.705309 -1e-06 -1e-06
                      CHANNELS 3 Zrotation Yrotation Xrotation
                      JOINT LeftHandThumb3
                      {
                        OFFSET 2.798515 0.0 3e-06
                        CHANNELS 3 Zrotation Yrotation Xrotation
                        JOINT LeftHandThumbEnd
                        {
                          OFFSET 3.180793 4e-06 -4e-06
                          CHANNELS 3 Zrotation Yrotation Xrotation
                        }
                      }
                    }
                  }
                  JOINT LeftHandIndex1
                  {
                    OFFSET 3.247786 2.352677 0.137192
                    CHANNELS 3 Zrotation Yrotation Xrotation
                    JOINT LeftHandIndex2
                    {
                      OFFSET 6.367095 1e-06 0.0
                      CHANNELS 3 Zrotation Yrotation Xrotation
                      JOINT LeftHandIndex3
                      {
                        OFFSET 3.662364 0.0 0.0
                        CHANNELS 3 Zrotation Yrotation Xrotation
                        JOINT LeftHandIndex4
                        {
                          OFFSET 2.329242 4e-06 -4e-06
                          CHANNELS 3 Zrotation Yrotation Xrotation
                          JOINT LeftHandIndexEnd
                          {
                            OFFSET 2.767823 1e-06 0.0
                            CHANNELS 3 Zrotation Yrotation Xrotation
                          }
                        }
                      }
                    }
                  }
                  JOINT LeftHandMiddle1
                  {
                    OFFSET 3.163612 0.945023 -0.406112
                    CHANNELS 3 Zrotation Yrotation Xrotation
                    JOINT LeftHandMiddle2
                    {
                      OFFSET 6.276789 3e-06 0.0
                      CHANNELS 3 Zrotation Yrotation Xrotation
                      JOINT LeftHandMiddle3
                      {
                        OFFSET 4.35652 -1e-06 4e-06
                        CHANNELS 3 Zrotation Yrotation Xrotation
                        JOINT LeftHandMiddle4
                        {
                          OFFSET 2.996877 0.0 8e-06
                          CHANNELS 3 Zrotation Yrotation Xrotation
                          JOINT LeftHandMiddleEnd
                          {
                            OFFSET 2.323256 3e-06 -4e-06
                            CHANNELS 3 Zrotation Yrotation Xrotation
                          }
                        }
                      }
                    }
                  }
                  JOINT LeftHandRing1
                  {
                    OFFSET 2.882606 -0.309162 0.107445
                    CHANNELS 3 Zrotation Yrotation Xrotation
                    JOINT LeftHandRing2
                    {
                      OFFSET 6.033198 0.0 4e-06
                      CHANNELS 3 Zrotation Yrotation Xrotation
                      JOINT LeftHandRing3
                      {
                        OFFSET 4.350578 3e-06 0.0
                        CHANNELS 3 Zrotation Yrotation Xrotation
                        JOINT LeftHandRing4
                        {
                          OFFSET 2.651321 2e-06 -7e-06
                          CHANNELS 3 Zrotation Yrotation Xrotation
                          JOINT LeftHandRingEnd
                          {
                            OFFSET 1.937663 1e-06 -4e-06
                            CHANNELS 3 Zrotation Yrotation Xrotation
                          }
                        }
                      }
                    }
                  }
                  JOINT LeftHandPinky1
                  {
                    OFFSET 2.865315 -1.525436 0.575687
                    CHANNELS 3 Zrotation Yrotation Xrotation
                    JOINT LeftHandPinky2
                    {
                      OFFSET 5.54936 1e-06 -8e-06
                      CHANNELS 3 Zrotation Yrotation Xrotation
                      JOINT LeftHandPinky3
                      {
                        OFFSET 3.070974 0.0 -4e-06
                        CHANNELS 3 Zrotation Yrotation Xrotation
                        JOINT LeftHandPinky4
                        {
                          OFFSET 1.549672 1e-06 0.0
                          CHANNELS 3 Zrotation Yrotation Xrotation
                          JOINT LeftHandPinkyEnd
                          {
                            OFFSET 1.952123 0.0 0.0
                            CHANNELS 3 Zrotation Yrotation Xrotation
                          }
                        }
                      }
                    }
                  }
                }
              }
            }
          }
          JOINT RightShoulder
          {
            OFFSET 23.161716 5.296122 -1.380114
            CHANNELS 3 Zrotation Yrotation Xrotation
            JOINT RightArm
            {
              OFFSET -16.027195 -2e-06 1.1e-05
              CHANNELS 3 Zrotation Yrotation Xrotation
              JOINT RightForeArm
              {
                OFFSET -28.736639 4e-06 2e-06
                CHANNELS 3 Zrotation Yrotation Xrotation
                JOINT RightHand
                {
                  OFFSET -27.133619 6e-06 0.0
                  CHANNELS 3 Zrotation Yrotation Xrotation
                  JOINT RightHandThumb1
                  {
                    OFFSET -2.274328 -3.351035 -0.83067
                    CHANNELS 3 Zrotation Yrotation Xrotation
                    JOINT RightHandThumb2
                    {
                      OFFSET -4.703594 -3e-06 2e-06
                      CHANNELS 3 Zrotation Yrotation Xrotation
                      JOINT RightHandThumb3
                      {
                        OFFSET -2.794935 -4e-06 -3e-06
                        CHANNELS 3 Zrotation Yrotation Xrotation
                        JOINT RightHandThumbEnd
                        {
                          OFFSET -3.183852 4e-06 1e-06
                          CHANNELS 3 Zrotation Yrotation Xrotation
                        }
                      }
                    }
                  }
                  JOINT RightHandIndex1
                  {
                    OFFSET -3.253496 -2.33755 -0.127667
                    CHANNELS 3 Zrotation Yrotation Xrotation
                    JOINT RightHandIndex2
                    {
                      OFFSET -6.344434 0.0 0.0
                      CHANNELS 3 Zrotation Yrotation Xrotation
                      JOINT RightHandIndex3
                      {
                        OFFSET -3.654871 0.0 -8e-06
                        CHANNELS 3 Zrotation Yrotation Xrotation
                        JOINT RightHandIndex4
                        {
                          OFFSET -2.327586 -1e-06 0.0
                          CHANNELS 3 Zrotation Yrotation Xrotation
                          JOINT RightHandIndexEnd
                          {
                            OFFSET -2.770001 3e-06 8e-06
                            CHANNELS 3 Zrotation Yrotation Xrotation
                          }
                        }
                      }
                    }
                  }
                  JOINT RightHandMiddle1
                  {
                    OFFSET -3.168223 -0.944764 0.411762
                    CHANNELS 3 Zrotation Yrotation Xrotation
                    JOINT RightHandMiddle2
                    {
                      OFFSET -6.266691 -1e-06 -4e-06
                      CHANNELS 3 Zrotation Yrotation Xrotation
                      JOINT RightHandMiddle3
                      {
                        OFFSET -4.348901 0.0 0.0
                        CHANNELS 3 Zrotation Yrotation Xrotation
                        JOINT RightHandMiddle4
                        {
                          OFFSET -3.00024 2e-06 -4e-06
                          CHANNELS 3 Zrotation Yrotation Xrotation
                          JOINT RightHandMiddleEnd
                          {
                            OFFSET -2.321477 -4e-06 -4e-06
                            CHANNELS 3 Zrotation Yrotation Xrotation
                          }
                        }
                      }
                    }
                  }
                  JOINT RightHandRing1
                  {
                    OFFSET -2.885654 0.293261 -0.119232
                    CHANNELS 3 Zrotation Yrotation Xrotation
                    JOINT RightHandRing2
                    {
                      OFFSET -6.032835 -1e-06 -4e-06
                      CHANNELS 3 Zrotation Yrotation Xrotation
                      JOINT RightHandRing3
                      {
                        OFFSET -4.33881 0.0 -4e-06
                        CHANNELS 3 Zrotation Yrotation Xrotation
                        JOINT RightHandRing4
                        {
                          OFFSET -2.654903 -4e-06 -4e-06
                          CHANNELS 3 Zrotation Yrotation Xrotation
                          JOINT RightHandRingEnd
                          {
                            OFFSET -1.935122 0.0 4e-06
                            CHANNELS 3 Zrotation Yrotation Xrotation
                          }
                        }
                      }
                    }
                  }
                  JOINT RightHandPinky1
                  {
                    OFFSET -2.866241 1.503904 -0.60527
                    CHANNELS 3 Zrotation Yrotation Xrotation
                    JOINT RightHandPinky2
                    {
                      OFFSET -5.553177 -2e-06 0.0
                      CHANNELS 3 Zrotation Yrotation Xrotation
                      JOINT RightHandPinky3
                      {
                        OFFSET -3.062664 -1e-06 -4e-06
                        CHANNELS 3 Zrotation Yrotation Xrotation
                        JOINT RightHandPinky4
                        {
                          OFFSET -1.546529 2e-06 4e-06
                          CHANNELS 3 Zrotation Yrotation Xrotation
                          JOINT RightHandPinkyEnd
                          {
                            OFFSET -1.952341 0.0 -4e-06
                            CHANNELS 3 Zrotation Yrotation Xrotation
                          }
                        }
                      }
                    }
                  }
                }
              }
            }
          }
        }
      }
    }
    JOINT LeftLeg
    {
      OFFSET -8.443107 2.567604 10.043214
      CHANNELS 3 Zrotation Yrotation Xrotation
      JOINT LeftShin
      {
        OFFSET 43.229198 1e-06 -1e-06
        CHANNELS 3 Zrotation Yrotation Xrotation
        JOINT LeftFoot
        {
          OFFSET 42.298611 1e-06 1e-06
          CHANNELS 3 Zrotation Yrotation Xrotation
          JOINT LeftToeBase
          {
            OFFSET 14.165858 1e-06 0.0
            CHANNELS 3 Zrotation Yrotation Xrotation
            JOINT LeftToeEnd
            {
              OFFSET 6.7141 -0.234461 0.0
              CHANNELS 3 Zrotation Yrotation Xrotation
            }
          }
        }
      }
    }
    JOINT RightLeg
    {
      OFFSET -8.303923 2.592729 -10.047278
      CHANNELS 3 Zrotation Yrotation Xrotation
      JOINT RightShin
      {
        OFFSET -43.369682 0.0 1e-06
        CHANNELS 3 Zrotation Yrotation Xrotation
        JOINT RightFoot
        {
          OFFSET -42.260784 4e-06 2e-06
          CHANNELS 3 Zrotation Yrotation Xrotation
          JOINT RightToeBase
          {
            OFFSET -14.222245 -2e-06 -1e-06
            CHANNELS 3 Zrotation Yrotation Xrotation
            JOINT RightToeEnd
            {
              OFFSET -6.660062 0.232574 -2e-06
              CHANNELS 3 Zrotation Yrotation Xrotation
            }
          }
        }
      }
    }
  }
}
MOTION
Frames: 5
Frame Time: 0.03333333333333333
0.0 0.0 0.0 0.0 -0.0 0.0 -0.272683 99.821037 5.782688 92.351257 -1.73679 90.472153 -1.840613 -0.282933 0.165564 -11.16258 -0.355826 -0.149286 13.661522 0.635129 -1.998537 8.621394 -5.257375 3.090182 -2.596606 -0.83971 -0.285 -28.852953 -0.891646 -0.714838 6e-06 0.0 0.0 -0.046917 0.01727 -0.063498 -0.041507 0.054389 -0.054362 -0.014894 -0.030852 -0.059152 -124.573418 -66.157402 137.395355 4.798703 -26.15234 2.898181 51.367912 0.580876 -0.270738 3.162869 1.566777 -21.536812 17.636627 -26.322725 52.411186 -19.466663 -14.395596 29.410395 0.0 -8.774821 -2e-06 15.431921 -18.37418 6.489767 -0.609777 -1.795654 -3.889328 -4.807089 -11.046811 -2.937851 5e-06 -20.976019 -2e-06 -5.01997 -25.03356 -4.031882 8e-06 0.0 0.0 -10.634534 -5.686969 -3.565587 10.573275 -17.922951 -3.113902 5e-06 -13.821209 -1e-06 -0.501777 -31.181505 -4.027017 -10.872714 -58.064137 6.227452 -13.982712 -7.150199 -2.875044 13.77273 -8.401492 -3.218243 0.347736 -34.211555 0.77165 -0.963027 -17.733372 2.621019 -1e-06 -1e-06 -0.0 -17.346416 -20.095217 -4.201784 21.757555 -1.638374 3.866427 -1e-06 -6.338823 0.0 -1.697584 -22.591742 -6.19401 -1e-06 -4e-06 -2e-06 54.012718 -73.255424 138.078293 12.171445 -28.156351 -7.705881 50.05965 -0.893811 0.644107 -2.152818 5.434433 -6.295339 22.182114 -20.375898 49.933327 -16.701815 -16.743528 28.476536 -1e-06 -12.690602 -1e-06 15.385034 -17.5485 3.177125 -0.10592 -1.513855 -4.275882 -5.039038 -5.612869 -2.953557 2e-06 -11.020524 -2e-06 -6.111298 -15.895334 -3.84047 0.0 0.0 -0.0 -10.283367 -5.680289 -4.34184 11.028296 -11.302404 -2.372633 -1.384268 -14.238583 -6.320121 -0.625437 -26.924192 -3.827603 -4.294063 -49.931309 -3.15396 -13.708526 -7.363477 -3.720942 18.141148 -14.052739 -3.242674 6e-06 -18.787271 -1e-06 -0.429711 -8.456045 2.555503 -2e-06 -1e-06 0.0 -15.923532 -20.094482 -5.473585 30.419214 -7.190826 1.735924 3e-06 -8.162927 -1e-06 -1.861902 -22.861471 -6.167942 2e-06 -5e-06 -1e-06 -176.806076 -3.518267 -10.438766 5.75203 -0.092409 0.110927 -76.410759 -2.741135 -11.56182 -5.285508 1.459368 2.115874 -0.999999 1e-06 0.0 3.05994 -10.661504 -5.486956 5.224431 -0.049102 0.228281 -78.982834 4.292924 -8.912192 -4.788657 0.784911 1.700628 -1.000003 -0.0 0.0 
0.0 0.0 0.0 0.0 -0.0 0.0 -0.25135 99.811462 5.808874 92.38752 -1.75522 90.371254 -1.831178 -0.29837 0.129662 -11.152931 -0.342929 -0.139136 13.621541 0.628576 -2.032985 8.638441 -5.0728 3.113348 -2.595015 -0.859479 -0.269284 -28.846292 -0.951016 -0.700524 6e-06 0.0 -0.0 -0.060365 0.016903 -0.050117 -0.041167 0.04791 -0.04306 -0.013578 -0.025393 -0.045075 -124.169273 -66.235428 137.036407 4.713654 -26.121969 2.633176 51.08989 0.460364 -0.25045 3.396999 1.402166 -21.525181 17.636627 -26.322725 52.411179 -19.466661 -14.395597 29.410385 -0.0 -8.774819 -2e-06 15.51588 -18.319197 6.421196 -0.609774 -1.79565 -3.889328 -4.80709 -11.046811 -2.937848 3e-06 -20.976015 1e-06 -5.01997 -25.033556 -4.03188 8e-06 -0.0 0.0 -10.634531 -5.686967 -3.565587 10.573272 -17.922949 -3.113901 3e-06 -13.821206 1e-06 -0.501782 -31.181498 -4.027012 -10.977271 -58.254097 6.398612 -13.982709 -7.150198 -2.875043 13.77273 -8.401493 -3.218241 0.347731 -34.211555 0.771654 -0.963031 -17.73337 2.62102 -1e-06 -0.0 -2e-06 -17.346416 -20.095217 -4.201782 21.757555 -1.638373 3.866428 1e-06 -6.338823 1e-06 -1.697589 -22.59174 -6.194005 -1e-06 -4e-06 -2e-06 54.000729 -73.225693 138.123871 11.719677 -28.049194 -7.525115 50.036869 -0.754271 0.704503 -2.107239 5.229219 -6.363229 22.182116 -20.375893 49.933319 -16.701817 -16.74353 28.476532 -0.0 -12.690604 -2e-06 15.452053 -17.561325 3.153453 -0.105921 -1.513856 -4.275882 -5.039037 -5.612868 -2.953555 3e-06 -11.020524 -2e-06 -6.111296 -15.895334 -3.84047 -1e-06 0.0 -0.0 -10.283373 -5.680285 -4.341839 11.028297 -11.302402 -2.372632 -1.384271 -14.238577 -6.32012 -0.625436 -26.924183 -3.827601 -4.256692 -50.109108 -3.126318 -13.708527 -7.363473 -3.720938 18.141151 -14.052739 -3.242674 5e-06 -18.78727 -1e-06 -0.429714 -8.456044 2.555504 -0.0 -0.0 0.0 -15.923538 -20.094482 -5.473584 30.419214 -7.190827 1.735926 3e-06 -8.162927 -1e-06 -1.861903 -22.861469 -6.167939 -0.0 -4e-06 -3e-06 -176.773666 -3.480209 -10.498508 5.679021 -0.075118 0.154436 -76.426575 -2.657065 -11.641418 -5.353312 1.494305 2.129153 -0.999999 0.0 1e-06 3.067394 -10.738136 -5.545738 5.174741 -0.052027 0.208861 -79.007607 4.481694 -8.886797 -4.873951 0.76005 1.691094 -1.000002 0.0 -0.0 
0.0 0.0 0.0 0.0 -0.0 0.0 -0.251901 99.799538 5.745621 92.427528 -1.801512 90.24102 -1.846373 -0.326022 0.111306 -11.148777 -0.353121 -0.152076 13.631621 0.678933 -2.03723 8.581783 -4.902132 3.145551 -2.629543 -0.851812 -0.306216 -28.788677 -0.992988 -0.672783 6e-06 0.0 -0.0 -0.065815 0.013795 -0.058561 -0.047607 0.034885 -0.05021 -0.012776 -0.019149 -0.055993 -124.039833 -66.314102 136.949036 4.549606 -25.978735 2.594444 50.922546 0.391568 -0.282254 3.513288 1.086037 -21.69364 17.636629 -26.322741 52.411209 -19.466665 -14.395606 29.410398 -0.0 -8.774822 -2e-06 15.531553 -18.304537 6.409693 -0.609776 -1.795657 -3.88933 -4.807087 -11.046811 -2.93785 3e-06 -20.976021 -0.0 -5.019973 -25.033562 -4.03188 7e-06 1e-06 0.0 -10.634534 -5.68697 -3.565588 10.573278 -17.922953 -3.113903 1e-06 -13.821212 1e-06 -0.501776 -31.181505 -4.027016 -11.03906 -58.355518 6.476237 -13.982716 -7.1502 -2.875043 13.772732 -8.40149 -3.218243 0.347733 -34.211555 0.771654 -0.963029 -17.733374 2.621019 -1e-06 0.0 -1e-06 -17.346424 -20.095224 -4.201782 21.757561 -1.638373 3.866428 1e-06 -6.338825 1e-06 -1.697589 -22.591751 -6.194008 -1e-06 -4e-06 -2e-06 53.703598 -73.128639 138.449417 11.282553 -27.755066 -7.19135 49.965694 -0.584873 0.737197 -2.151204 5.132297 -6.671301 22.182106 -20.375891 49.933319 -16.701811 -16.743528 28.476532 -0.0 -12.690598 0.0 15.46674 -17.53619 3.170403 -0.105918 -1.513857 -4.275881 -5.039039 -5.612868 -2.953555 1e-06 -11.02052 -3e-06 -6.1113 -15.895329 -3.840469 0.0 0.0 -0.0 -10.283367 -5.68029 -4.341838 11.028291 -11.302399 -2.372633 -1.384274 -14.238578 -6.32012 -0.625433 -26.924183 -3.827607 -4.230629 -50.208313 -3.083044 -13.70852 -7.363479 -3.720939 18.141146 -14.052736 -3.242677 4e-06 -18.787262 -2e-06 -0.42971 -8.45604 2.555502 -0.0 -0.0 0.0 -15.923532 -20.094484 -5.473583 30.419207 -7.190822 1.735924 1e-06 -8.162926 -1e-06 -1.861902 -22.861467 -6.167942 0.0 -4e-06 -0.0 -176.794724 -3.451028 -10.642137 5.630154 -0.064696 0.175456 -76.451691 -2.497485 -11.684428 -5.380205 1.502366 2.138171 -0.999999 0.0 0.0 3.032192 -10.821444 -5.574985 5.146307 -0.049351 0.186063 -79.06414 4.70811 -8.915905 -4.9002 0.748348 1.687307 -1.000001 -0.0 0.0 
0.0 0.0 0.0 0.0 -0.0 0.0 -0.242908 99.779839 5.638606 92.465187 -1.833566 90.094582 -1.842031 -0.373852 0.09085 -11.158802 -0.36233 -0.152696 13.683809 0.74987 -2.031038 8.522207 -4.729596 3.167704 -2.656065 -0.849432 -0.320517 -28.758263 -1.024073 -0.673064 5e-06 0.0 -0.0 -0.066425 0.010771 -0.066487 -0.055674 0.023267 -0.056663 -0.015564 -0.013883 -0.066068 -123.992073 -66.373436 136.947449 4.434796 -25.789103 2.660103 50.821911 0.333745 -0.334818 3.572937 0.864269 -21.847015 17.636631 -26.322725 52.411201 -19.466661 -14.395597 29.410389 -2e-06 -8.774822 -2e-06 15.508827 -18.281666 6.420697 -0.609776 -1.795653 -3.889327 -4.80709 -11.046811 -2.93785 4e-06 -20.976017 -1e-06 -5.01997 -25.033558 -4.031881 8e-06 -0.0 -0.0 -10.634535 -5.686966 -3.565589 10.573278 -17.922949 -3.113903 4e-06 -13.821208 0.0 -0.501777 -31.181505 -4.027017 -11.073591 -58.373852 6.528172 -13.982715 -7.150198 -2.875043 13.772731 -8.401491 -3.218242 0.347736 -34.211544 0.771652 -0.963029 -17.733368 2.621019 0.0 -1e-06 -0.0 -17.346418 -20.095213 -4.201782 21.757557 -1.638377 3.866427 1e-06 -6.338823 1e-06 -1.697583 -22.591742 -6.19401 -1e-06 -4e-06 -2e-06 53.304405 -73.004517 138.867294 10.893844 -27.462818 -6.771995 49.888054 -0.40067 0.804786 -2.251778 5.086103 -6.971886 22.182112 -20.375887 49.933315 -16.701815 -16.743526 28.476534 -1e-06 -12.6906 -1e-06 15.456317 -17.521046 3.199423 -0.105919 -1.513856 -4.275882 -5.039041 -5.612871 -2.953556 4e-06 -11.020525 -4e-06 -6.111295 -15.895332 -3.840472 0.0 -0.0 -1e-06 -10.283369 -5.680287 -4.341839 11.028291 -11.302401 -2.372632 -1.384269 -14.238581 -6.320121 -0.625436 -26.924187 -3.827603 -4.254847 -50.24469 -3.011164 -13.708524 -7.363479 -3.720942 18.14115 -14.052735 -3.242675 6e-06 -18.787264 -3e-06 -0.42971 -8.456041 2.555503 -0.0 0.0 -0.0 -15.923536 -20.094481 -5.473586 30.41921 -7.190826 1.735924 2e-06 -8.162926 -1e-06 -1.861901 -22.861467 -6.167941 0.0 -4e-06 -0.0 -176.830994 -3.417505 -10.835519 5.615855 -0.064441 0.18444 -76.515862 -2.370792 -11.724306 -5.419902 1.508016 2.14082 -0.999998 0.0 0.0 2.881503 -10.903545 -5.532436 5.361997 -0.052113 0.168314 -79.247108 4.922361 -8.938733 -4.951686 0.736203 1.681846 -1.000002 0.0 -0.0 
0.0 0.0 0.0 0.0 -0.0 0.0 -0.211606 99.777046 5.532513 92.495438 -1.862902 89.947868 -1.830311 -0.428231 0.074233 -11.171382 -0.37015 -0.162801 13.739139 0.815167 -2.032563 8.481132 -4.534366 3.165989 -2.658974 -0.844756 -0.298479 -28.818287 -1.057153 -0.659352 6e-06 0.0 -0.0 -0.063455 0.010563 -0.064318 -0.056119 0.020108 -0.054503 -0.016336 -0.011072 -0.064543 -123.84861 -66.432579 136.85524 4.378571 -25.667431 2.700855 50.773182 0.297403 -0.340463 3.545474 0.788909 -21.978777 17.636621 -26.322721 52.411182 -19.46666 -14.395597 29.410385 -1e-06 -8.774821 -1e-06 15.475842 -18.2533 6.425385 -0.609775 -1.795651 -3.889328 -4.807085 -11.046811 -2.93785 4e-06 -20.976013 -1e-06 -5.019967 -25.033554 -4.03188 7e-06 -0.0 0.0 -10.634531 -5.686968 -3.565586 10.573272 -17.922949 -3.113901 2e-06 -13.821208 1e-06 -0.501779 -31.181505 -4.027015 -11.085831 -58.350403 6.571697 -13.982714 -7.150196 -2.875043 13.77273 -8.401494 -3.218242 0.347738 -34.211544 0.771652 -0.963029 -17.73337 2.621021 -1e-06 -1e-06 -1e-06 -17.346416 -20.095213 -4.201782 21.757555 -1.638373 3.866427 1e-06 -6.338823 0.0 -1.697591 -22.591743 -6.194006 1e-06 -4e-06 -2e-06 52.968872 -72.913689 139.211472 10.619309 -27.327356 -6.466223 49.76659 -0.265005 0.873384 -2.34309 5.071238 -7.125185 22.182117 -20.375887 49.933311 -16.701813 -16.743528 28.476524 -0.0 -12.690601 -3e-06 15.475451 -17.541563 3.205993 -0.10592 -1.513853 -4.275879 -5.039041 -5.612873 -2.953558 2e-06 -11.02052 -2e-06 -6.111296 -15.895328 -3.840472 0.0 0.0 -1e-06 -10.283372 -5.680287 -4.341838 11.028294 -11.302406 -2.372633 -1.384269 -14.238581 -6.32012 -0.625435 -26.924191 -3.827601 -4.314684 -50.263039 -2.970981 -13.708524 -7.363476 -3.72094 18.141148 -14.052738 -3.242672 8e-06 -18.787266 -3e-06 -0.42971 -8.456042 2.555503 -0.0 -0.0 1e-06 -15.923536 -20.094479 -5.473585 30.41921 -7.190825 1.735928 1e-06 -8.162927 -0.0 -1.861904 -22.861467 -6.16794 1e-06 -6e-06 -1e-06 -176.872559 -3.381243 -11.023466 5.605137 -0.068376 0.187904 -76.51181 -2.293412 -11.726958 -5.458976 1.508132 2.138714 -0.999998 0.0 0.0 2.676146 -10.975164 -5.478047 5.599543 -0.052151 0.163707 -79.35614 5.131892 -8.948037 -5.013679 0.727531 1.677767 -1.000002 0.0 -0.0 
